<svg version="1" xmlns="http://www.w3.org/2000/svg" width="933.333" height="933.333" viewBox="0 0 700.000000 700.000000"><path d="M246.7 22c-2 .5-5.6 1.9-7.9 3.1C233.4 27.8 64.9 166 61.5 170.4c-5 6.5-7 12.5-7 21.1 0 11 2 15.6 12.6 28.7l8.7 10.9-5.3 11.2C45.1 295.9 36.2 360.4 46.1 420c5.1 30.9 14 58.4 28.4 87.6 15.7 31.8 33.2 56.3 58.5 81.4 48.3 48.1 109.5 78 179.5 87.6 17.7 2.4 56.9 2.5 74.2.1 57-7.9 106.4-28 149.8-61.1 87.8-66.8 134.3-180.3 118-288.6-15-100.1-75.5-184.3-165-230-33-16.9-67.1-27.1-107-32.2-12.4-1.5-54-1.5-65.4 0-6.5.9-8.7.9-9.8 0-.8-.7-6.3-7.1-12.1-14.2-15.5-19.1-19.4-23-26.2-26-6.6-3-16.3-4.1-22.3-2.6zm33 43.1c7.2 9.1 25.8 31.8 54 65.8 6.6 8 7.1 8.7 5.7 10.6-4.3 6-4.8 8-3.5 15.7 2.6 16 14.6 31.1 30.4 38.4 6.6 3 10.7 2.8 15.2-.8l2.7-2.1 3.3 3.9c2.9 3.5 3.1 4.1 1.9 5.9-2.9 4.1-1.2 20 3.1 28.5 7.1 13.9 33.6 30 41.4 25.1.9-.6 2.2.1 4.3 2.5l3 3.4-1.7 3.6c-1.5 3.2-1.6 4.4-.5 9.8 2.3 12.1 8.1 21.3 18.4 29.5 10.9 8.7 20.1 12.1 23.5 8.8 1-1 1.9-.4 4.6 2.8 3.2 3.7 3.3 4.1 1.7 5.8-3.6 4.1 2.3 22.2 9.8 29.7 6.6 6.6 17.9 10.9 23 8.8 1.1-.5 6.2 5.1 18.5 20.3 9.4 11.5 17.1 21.3 17.3 21.7.3.9-182.4 149.5-184.4 150-.6.2-10-10.4-20.7-23.6-15-18.3-20.1-25.3-22.1-30.1-4-9.8-11.1-22.3-21.7-38.1-19.3-28.7-37.9-47.8-55.6-57.1-4.5-2.4-7.6-5.5-17.4-17.4-6.6-8-11.7-14.5-11.4-14.5.3 0 2 .7 3.7 1.6 1.8.9 6.4 2.7 10.2 4.1 24.5 8.3 45.8 2.6 58.3-15.8 4.7-7 6.7-15.1 4.5-18.6-1.2-1.8-98.1-47.5-104.9-49.5-5.4-1.5-9.2 1-15.4 10.6l-5.4 8.3-30-36.8C96.4 218 90 210.1 90 209.5c0-.2 35.7-29.5 79.3-64.9 43.5-35.5 84.8-69.2 91.7-75 6.9-5.7 12.8-10.5 13.2-10.5.4-.1 2.9 2.6 5.5 6zm65.7 24.1c1 6 2.6 24.1 2.3 24.5-.2.2-4.3-4.4-9.1-10.2-6.5-7.9-8.6-11.2-8.6-13.4 0-3 0-3 6.8-3.4 3.7-.2 7-.4 7.4-.5.4-.1.9 1.3 1.2 3zm24.3-1.8c.1.1.3 6.7.3 14.6.1 11.6-.1 14.4-1.2 14.1-.7-.2-2.1-.6-3.1-.8-1.2-.4-3.1.9-6.1 4.2l-4.3 4.7-2.1-2.9c-2-2.8-2-2.9-.2-18.8 1-8.8 1.8-16 1.9-16 .4-.1 14.6.8 14.8.9zm22.5 2.2c2.6.5 2.8.9 2.3 4.2-.3 2-1 10.4-1.6 18.7-.5 8.2-1.2 15.1-1.4 15.4-.2.2-3.5-1.6-7.3-4-3.9-2.4-7.7-4.9-8.7-5.4-1.5-.9-1.5-2.1 1.1-15.8l2.8-14.8 5 .6c2.8.3 6.3.8 7.8 1.1zm23.1 4.5c3.5.9 3.8 1.3 3.3 3.7-1.2 5.8-6.5 39.6-6.3 39.9.2.1 3.7-8.6 7.8-19.3 4.1-10.8 7.9-19.9 8.6-20.1.7-.3 4.1.5 7.6 1.6l6.4 2.2-5.3 21.2c-2.9 11.6-5.2 21.2-5.1 21.3.1.2 4.4-8.5 9.6-19.2 5.2-10.7 10-19.4 10.6-19.4 1 0 12.5 4.7 13.2 5.4.1.1-2.9 9.1-6.8 20-3.8 11-6.8 20-6.6 20.2.1.2 5.1-7.8 11-17.6 6-9.9 11.2-18 11.8-18 .9 0 9.1 4 11.7 5.8.9.6-.8 5.5-7.4 20.3-4.7 10.7-8.8 19.8-9.1 20.4-1.6 2.9 2.5-2.6 13.2-17.5 6.5-9.1 12.1-16.8 12.4-17.2.6-.6 9.5 4.6 12.4 7.2.5.4-3.2 7.9-8.1 16.6-10.8 19.4-11.4 20.4-10.8 20.4.3 0 6.4-6.9 13.7-15.3 7.2-8.3 13.4-15.3 13.8-15.4.3-.2 3.2 1.7 6.4 4.2l5.8 4.6-12.8 18.7-12.7 18.7 16.4-15.6 16.4-15.7 5.3 4.6c2.9 2.5 5.3 5 5.3 5.5s-5.3 7.4-11.7 15.4c-6.5 7.9-12.7 15.7-13.8 17.1-1.8 2.4 3-1.3 26.5-20.6l6.5-5.3 4.7 5.3c2.6 2.9 4.8 5.8 4.8 6.3 0 .6-5.2 6.2-11.6 12.5-20.3 20.2-20.2 20.9.4 6.9l18.1-12.3 2 2.5c1.1 1.3 3.3 4.1 4.7 6.2 2.3 3.2 2.5 4 1.3 5.1-.8.7-8 7-16.1 14.1-8.2 7-14.8 12.9-14.8 13.2 0 .2 1.9-.7 4.3-2.1 2.3-1.4 10.7-6.1 18.7-10.6l14.5-8.1 2 2.5c1.1 1.4 3 4.3 4.2 6.5l2.3 3.9-17 12.3c-9.4 6.7-16.9 12.4-16.7 12.6.2.2 8.8-3.5 19.1-8.2 10.3-4.7 18.9-8.5 19.1-8.5.6 0 6.5 11.7 6.5 12.9 0 .6-8.1 5.9-18 11.7-9.9 5.9-17.9 10.9-17.7 11 .1.1 9.2-2.8 20.1-6.7 11-3.8 20.1-6.7 20.2-6.6.8.8 5.4 11.9 5.4 13.1 0 .7-8.7 5.5-19.4 10.7-10.7 5.2-19.4 9.5-19.2 9.6.1.1 9.7-2.2 21.4-5.1l21.2-5.4 2.2 7c1.9 6 2 7 .8 7.8-.8.5-10.2 4.2-20.8 8.1-10.5 4-19.1 7.3-19 7.5.2.1 9.9-1.4 21.7-3.3 16.2-2.5 21.6-3.1 22.2-2.2 1 1.7 3.1 13 2.5 13.6-.3.3-9.7 3.2-20.8 6.3-11.2 3.2-19.2 5.9-17.7 5.9 2.6.1 25.3-1.5 35.1-2.4 6.4-.7 5.9-1.2 7.3 10.1l.6 5-21.2 4-21.2 3.9 6.9.6c3.8.4 13.5.7 21.6.8l14.6.1.4 7.5c.2 6 0 7.6-1.2 7.9-.8.3-10.2 1.2-20.7 2.2-10.6 1-19.3 2.1-19.3 2.4 0 .3 8.4 1.4 18.8 2.4 10.3.9 19.5 1.9 20.5 2.2 1.4.5 1.7 1.7 1.7 8v7.4l-12.2.1c-6.8.1-16.3.4-21.3.8l-9 .6 20.8 3.9c11.6 2.2 20.7 4.4 20.7 5 0 1.5-2.1 14-2.3 14.3-.2.1-8.6-.5-18.7-1.2-10.2-.8-19.7-1.5-21.2-1.5-2.2 0-3.1-.9-5.6-6.2-2-4.2-10.1-15-24.1-32-11.6-14.1-21.1-25.9-21.1-26.2 0-.3 3.1-2.2 7-4.1 3.8-1.9 7.4-4.3 7.9-5.3 1.4-2.7-1.2-11.9-6.4-22.9-4.6-9.5-15.8-25.3-17.9-25.3-.6 0-6.1 3.6-12.1 8-6.1 4.4-11.5 8-12.1 8-.6 0-2.5-1.7-4.2-3.9l-3.1-3.8 12.2-8.9c18.4-13.4 18.6-13.7 17.7-18.1-3.6-15.8-30.8-51.3-39.3-51.3-.9 0-8.5 6.2-16.8 13.7l-15.2 13.7-3.4-3.9c-1.8-2.1-3.2-4.2-3.1-4.5.2-.3 7.4-7.1 16.2-15 15.7-14.2 15.8-14.3 15.2-17.9-2.1-12.9-38.3-48.1-49.5-48.1-1.2 0-6.9 5.2-14.6 13.2l-12.7 13.3-3.4-4c-1.8-2.2-3.4-4.4-3.4-4.8 0-.5 3.7-4.9 8.3-9.8 4.5-5 8.3-9.7 8.5-10.5.7-2.8-4.7-10.1-13.7-18.6l-8.9-8.5 4.9-17.4c2.8-9.6 5.2-18 5.5-18.8.4-1.4 3.5-1.1 11.7 1zM95 256.8c3.2 1.6 26.8 28.7 25.8 29.7-.2.2-8.6-3.6-18.6-8.5-17.3-8.5-18.2-9-17.3-11.2 2.7-6.9 5.1-11.8 5.8-11.8.4.1 2.4.9 4.3 1.8zm29.5 33.4c.6.7 8.5 10.3 17.5 21.3s16.9 20.7 17.7 21.6c1.1 1.4-.7 4.8-13.7 25.8-19.3 31.1-19.3 31.2-18.8 37.6.5 6.1-5.3-2.6 54.7 82 45.1 63.6 47.5 67.1 47.3 71-.1 2.2-1 11-2 19.6l-1.8 15.6-10.9 15.1-10.8 15.1-3.7-2c-2.1-1.2-5-3.1-6.4-4.3l-2.7-2.1 8.9-16c11-19.8 11.4-20.5 10.8-20.5-.2 0-5.9 6.4-12.7 14.2-6.7 7.9-12.8 14.9-13.5 15.7-1.3 1.5-3.1.5-11.4-5.8l-2.4-1.9 12.3-18.4c11.9-17.6 12.2-18.1 7-13.3-2.9 2.7-5.6 5.2-5.9 5.5-.3.3-5.1 4.9-10.6 10.3l-10.1 9.9-5.6-5.4-5.6-5.3 11-13.5c6.1-7.4 12.5-15.3 14.2-17.5l3.2-4-4 3.1c-2.2 1.8-10.1 8.2-17.5 14.3L145.5 569l-5.3-5.7-5.4-5.6 9.9-10.1c5.4-5.6 12.3-12.8 15.3-16l5.5-5.9-18.3 12.3c-10.3 7-18.6 11.9-19.1 11.4-4.3-5-8.2-10.5-7.9-11.2.1-.5 7.4-7.1 16.1-14.6 8.6-7.6 15.7-13.9 15.7-14.1 0-.2-8.4 4.3-18.6 10-10.2 5.8-19 10.2-19.5 9.9-.9-.5-7.9-11.1-7.9-11.8 0-.3 7.9-6.2 17.5-13.1 9.6-7 17.5-12.9 17.5-13.1 0-.1-8.4 3.6-18.7 8.2-10.4 4.7-19.3 8.8-19.9 9-1 .5-6-7.3-7.6-11.7-.4-1.1 4-4.2 17.8-12.4 10.1-6 18.2-11 18.1-11.2-.2-.1-9.4 2.9-20.5 6.7-20.2 7-20.3 7-21.1 4.7-.5-1.2-1.8-4.4-3-7l-2.1-4.8 20.3-9.9c11.1-5.5 20-10 19.7-10-.3 0-10.1 2.5-21.8 5.4l-21.3 5.4-1-2.5c-.5-1.3-1.4-4.5-2.1-7-.9-3.7-.8-4.7.3-5.4.7-.4 9.4-3.9 19.3-7.6 9.9-3.7 17.4-6.9 16.5-7.1-.8-.1-10 1.1-20.4 2.8-10.3 1.7-19.2 2.7-19.6 2.3-1.1-1.2-3.4-13.1-2.6-13.9.3-.4 9.8-3.3 20.9-6.5 11.2-3.2 19-5.8 17.3-5.8-1.6 0-11.3.6-21.5 1.4-13.6 1-18.6 1.1-19.2.3-1-1.7-2.1-12.8-1.3-13.6.3-.4 9.9-2.5 21.3-4.8l20.7-4-21.4-.7c-11.8-.3-21.6-.8-21.8-1.1-.2-.2-.7-3.5-1-7.3-.7-8.4-3-7.4 23.4-9.9 10.6-1 19-2 18.8-2.2-.3-.3-9.8-1.4-21.2-2.6l-20.8-2.1-.3-3.5c-.2-1.9-.1-5.4.3-7.7l.6-4.3 14.7-.1c8.1-.1 17.8-.4 21.6-.8l6.9-.6-21.3-4-21.2-3.9.7-7.1c.3-3.8 1-7.3 1.3-7.6.4-.4 9 0 19.2.7 10.2.8 19.6 1.3 21 1.2 1.4-.2-3.7-2-11.5-4.1-7.7-2.1-17-4.7-20.6-5.8l-6.6-2 1.6-7.5c.8-4 2-7.4 2.6-7.4.5 0 10.2 1.6 21.5 3.4 11.3 1.9 20.6 3.3 20.8 3.2.1-.2-9-3.8-20.3-8.1s-20.5-7.9-20.5-8c0-.2 3.6-10.7 4.4-13.2.6-1.4 42.3 8.9 44.1 10.9zm484.8 129.2c10.3 3 19 5.6 19.3 5.9.6.6-2 13.5-2.9 14.3-.2.2-9.2-1-19.9-2.7l-19.6-3.2.9-3.1c.5-1.7.9-6.1.9-9.8 0-4.8.4-6.8 1.3-6.8.6.1 9.7 2.5 20 5.4zm-5 22.5c9.9 3.8 18.1 7.2 18.4 7.5.3.3-.4 3.6-1.6 7.4l-2.1 7-21.2-5.4c-11.7-2.9-21.5-5.4-21.8-5.4-.3 0 8.3 4.3 18.9 9.6 10.7 5.2 19.7 9.7 20 9.9.2.3-.8 3.7-2.4 7.6-2.2 5.6-3.1 6.9-4.4 6.4-5.4-2.2-38.5-13.4-38.7-13.2-.2.1 7.8 5.1 17.6 11 9.9 6 18 11.2 18 11.8 0 .9-4 9.1-5.8 11.7-.7 1-4.2-.2-15.8-5.4-23.9-10.8-26-11.6-24.9-10.6.6.5 8.7 6.4 18.2 13.2l17.2 12.3-3.6 5.6c-1.9 3.1-3.9 6-4.3 6.5-.5.4-7.1-2.7-14.7-6.9-22-12.4-24.9-13.9-23.3-12.3 1.3 1.3 30.9 26.8 31.9 27.4.4.4-6.4 9.7-8.1 11.2-1 .8-6-2.2-19.6-11.3l-18.3-12.4 10.9 11.7c6.1 6.4 13.1 13.7 15.6 16.1l4.5 4.4-5.1 5.8c-5 5.8-5.1 5.8-7.4 4.1-1.2-.9-9.2-7.3-17.6-14.2-8.4-6.9-14.4-11.3-13.3-9.8 1.1 1.5 7.3 9.1 13.8 17.1 6.4 7.9 11.7 14.9 11.7 15.4 0 1.4-9.8 9.5-11 9.1-.5-.2-5.5-4.8-11.2-10.3-23.1-22.3-22.4-22.1-8.7-2 6.7 9.9 12.3 18.4 12.5 19 .2.5-2.4 3-5.7 5.4-5.1 3.7-6.3 4.2-7.3 3-.7-.8-7-8-14.1-16.2-7-8.1-12.9-14.7-13.1-14.7-.1 0 4.4 8.4 10.2 18.7l10.5 18.8-2.5 2c-1.4 1.1-4.4 3-6.5 4.2l-4 2.3-13-18.1c-7.2-10-13.1-18-13.1-17.7 0 .2 4.1 9.3 9 20.2 5 11 9 20 9 20.2 0 .2-3.1 1.9-6.8 3.8l-6.8 3.4-11-18.3c-6-10.1-11-18.2-11.2-18.1-.1.2 2.9 9.3 6.7 20.3l7 20.1-6 2.6c-3.3 1.4-6.6 2.6-7.3 2.6-.7 0-5.5-8.7-10.7-19.4-5.2-10.7-9.5-19.4-9.6-19.2-.1.1 2.2 9.7 5.1 21.4l5.4 21.2-6.9 2.2c-4.3 1.3-7.2 1.8-7.7 1.2-.5-.5-4-9.2-7.7-19.3-3.8-10.1-7.1-17.9-7.3-17.3-.1.5 1.1 9.6 2.8 20.2 2.2 14.3 2.7 19.5 1.9 20.1-2 1.2-12.9 3.2-13.7 2.5-.4-.4-3.2-9.6-6.4-20.4-6.4-22.2-6.6-21.9-4.4 5.8.7 9.1 1.2 16.6 1.1 16.8-.1.2-1.8.5-3.7.8l-3.5.6-.6-14.3c-.4-7.9-.7-21.8-.7-30.9v-16.5l5.1-.3c5.7-.3 11.8-2.4 16.4-5.6 5.7-3.9 165-134.9 170.2-139.9 2.9-2.8 5.7-6.3 6.4-7.9.6-1.5 1.4-2.8 1.8-2.8.3 0 8.6 3.1 18.4 6.9zM223 607.5c-.9 8.5-1.9 15.7-2.2 16-.6.6-8.8-3.1-8.8-3.9 0-.2 2.3-5.5 5.1-11.7 2.8-6.3 5.5-12.4 6-13.7.5-1.2 1-2.2 1.2-2.2.2 0-.4 7-1.3 15.5z"/><path d="M240.5 207.5c-7.7 6.3-13.8 11.8-13.6 12.2.2.5 21.5 26.7 47.5 58.3 40.2 49 59.7 71.8 76.1 88.9l3.3 3.3 11.3-9.3c6.3-5.2 11.6-9.7 11.9-10.1 1.2-1.7-30.5-42.7-74-95.8-26-31.6-47.5-57.8-47.8-58.2-.4-.4-7 4.5-14.7 10.7zM380 378.2c-7.4 6.1-13.4 11.5-13.2 12.1.1.5 5.2 7 11.3 14.3 9.8 11.9 11.3 13.2 12.8 12.1 8.6-6.1 26.1-21.4 25.6-22.4-.6-1.8-21.7-27.3-22.4-27.2-.3 0-6.7 5-14.1 11.1z"/></svg>