<?xml version="1.0" encoding="utf-8"?>
<!-- Generator: Adobe Illustrator 24.1.3, SVG Export Plug-In . SVG Version: 6.00 Build 0)  -->
<svg version="1.1" id="Layer_1" xmlns="http://www.w3.org/2000/svg" xmlns:xlink="http://www.w3.org/1999/xlink" x="0px" y="0px"
	 viewBox="0 0 338.8 360.9" enable-background="new 0 0 338.8 360.9" xml:space="preserve">
<g>
	<path fill="#FFFFFF" d="M169.4,360.9c-45.2,0-87.8-17.6-119.8-49.6S0,236.8,0,191.6c0-25.2,5.6-50.3,16.4-72.8l-4.3-5.2
		c-4.4-5.3-6.4-12-5.7-18.8c0.7-6.8,4-13,9.3-17.4l87.2-71.5c5.3-4.4,12-6.4,18.8-5.7c6.8,0.7,13,4,17.4,9.3l11.3,13.8
		c6.3-0.7,12.7-1.1,19-1.1c45.2,0,87.8,17.6,119.8,49.6s49.6,74.5,49.6,119.8c0,45.2-17.6,87.8-49.6,119.8S214.6,360.9,169.4,360.9z
		"/>
	<circle fill="#FFFFFF" cx="169.4" cy="191.5" r="155.8"/>
	<path d="M169.3,353.7c-23.3,0-46.6-5.1-68.4-15.3c-39.2-18.3-69-50.8-83.8-91.4c-14.8-40.7-12.9-84.7,5.4-123.9
		c18.3-39.2,50.8-69,91.4-83.8c83.9-30.6,177.1,12.9,207.7,96.8c30.6,83.9-12.9,177.1-96.8,207.7C206.7,350.4,188,353.7,169.3,353.7
		z M169.2,42c-17,0-34.2,2.9-51,9c-37.5,13.7-67.5,41.1-84.4,77.3c-16.9,36.2-18.7,76.8-5,114.4c13.7,37.5,41.1,67.5,77.3,84.4
		c36.2,16.9,76.8,18.7,114.4,5c77.5-28.2,117.6-114.2,89.4-191.7C287.8,79.7,230.3,42,169.2,42z"/>
	<path d="M180.2,67.9l-0.5-31.9l6.5,0.6L180.2,67.9z M199.6,38.7l-6.4-1.1l-2.3,31.8L199.6,38.7z M212.8,41.9l-6.3-1.7l-5.1,31.5
		L212.8,41.9z M225.7,46.3l-6.1-2.2L211.8,75L225.7,46.3z M238.2,51.7l-5.9-2.7l-10.5,30.1L238.2,51.7z M250.1,58.3l-5.6-3.2
		l-13,29.1L250.1,58.3z M261.4,65.8l-5.3-3.7l-15.5,27.8L261.4,65.8z M272,74.3l-5-4.2l-17.9,26.4L272,74.3z M281.8,83.7l-4.6-4.6
		l-20.1,24.7L281.8,83.7z M290.8,93.9l-4.2-5l-22.2,22.9L290.8,93.9z M298.9,104.8l-3.7-5.3L271,120.4L298.9,104.8z M305.9,116.5
		l-3.2-5.6l-25.8,18.7L305.9,116.5z M311.9,128.7l-2.7-5.9l-27.4,16.3L311.9,128.7z M316.9,141.3l-2.2-6.1L286,149.1L316.9,141.3z
		 M320.7,154.4l-1.7-6.3l-29.8,11.3L320.7,154.4z M323.4,167.7l-1.1-6.4l-30.7,8.7L323.4,167.7z M324.9,181.2l-0.6-6.5l-31.3,6
		L324.9,181.2z M325.2,194.8v-6.5l-31.7,3.2L325.2,194.8z M324.3,208.4l0.6-6.5l-31.9,0.5L324.3,208.4z M322.2,221.8l1.1-6.4
		l-31.8-2.3L322.2,221.8z M319,235l1.7-6.3l-31.5-5.1L319,235z M314.7,247.9l2.2-6.1L286,234L314.7,247.9z M309.2,260.3l2.7-5.9
		L281.8,244L309.2,260.3z M302.7,272.3l3.2-5.6l-29.1-13L302.7,272.3z M295.1,283.6l3.7-5.3L271,262.7L295.1,283.6z M286.6,294.2
		l4.2-5l-26.4-17.9L286.6,294.2z M277.2,304l4.6-4.6l-24.7-20.1L277.2,304z M267,313l5-4.2l-22.9-22.2L267,313z M256.1,321l5.3-3.7
		l-20.9-24.1L256.1,321z M244.5,328.1l5.6-3.2L231.4,299L244.5,328.1z M232.3,334.1l5.9-2.7L221.8,304L232.3,334.1z M219.6,339.1
		l6.1-2.2l-13.9-28.7L219.6,339.1z M206.6,342.9l6.3-1.7l-11.3-29.8L206.6,342.9z M193.2,345.5l6.4-1.1l-8.7-30.7L193.2,345.5z
		 M179.7,347l6.5-0.6l-6-31.3L179.7,347z M166.1,347.3h6.5l-3.2-31.7L166.1,347.3z M152.6,346.5l6.5,0.6l-0.5-31.9L152.6,346.5z
		 M139.1,344.4l6.4,1.1l2.3-31.8L139.1,344.4z M125.9,341.2l6.3,1.7l5.1-31.5L125.9,341.2z M113,336.8l6.1,2.2l7.8-30.9L113,336.8z
		 M100.6,331.4l5.9,2.7l10.5-30.1L100.6,331.4z M88.7,324.9l5.6,3.2l13-29.1L88.7,324.9z M77.4,317.3l5.3,3.7l15.5-27.8L77.4,317.3z
		 M66.7,308.8l5,4.2l17.9-26.4L66.7,308.8z M56.9,299.4l4.6,4.6l20.1-24.7L56.9,299.4z M47.9,289.2l4.2,5l22.2-22.9L47.9,289.2z
		 M39.9,278.3l3.7,5.3l24.1-20.9L39.9,278.3z M32.8,266.6l3.2,5.6l25.8-18.7L32.8,266.6z M26.8,254.5l2.7,5.9L56.9,244L26.8,254.5z
		 M21.9,241.8l2.2,6.1L52.8,234L21.9,241.8z M18.1,228.7l1.7,6.3l29.8-11.3L18.1,228.7z M15.4,215.4l1.1,6.4l30.7-8.7L15.4,215.4z
		 M13.9,201.9l0.6,6.5l31.3-6L13.9,201.9z M13.6,188.3v6.5l31.7-3.2L13.6,188.3z M14.5,174.7l-0.6,6.5l31.9-0.5L14.5,174.7z
		 M16.5,161.3l-1.1,6.4l31.8,2.3L16.5,161.3z M19.7,148.1l-1.7,6.3l31.5,5.1L19.7,148.1z M24.1,135.2l-2.2,6.1l30.9,7.8L24.1,135.2z
		 M29.6,122.8l-2.7,5.9l30.1,10.5L29.6,122.8z M36.1,110.8l-3.2,5.6l29.1,13L36.1,110.8z M43.6,99.5l-3.7,5.3l27.8,15.5L43.6,99.5z
		 M52.1,88.9l-4.2,5l26.4,17.9L52.1,88.9z M61.5,79.1l-4.6,4.6l24.7,20.1L61.5,79.1z M71.7,70.1l-5,4.2l22.9,22.2L71.7,70.1z
		 M82.7,62.1l-5.3,3.7l20.9,24.1L82.7,62.1z M94.3,55l-5.6,3.2l18.7,25.8L94.3,55z M106.5,49l-5.9,2.7l16.3,27.4L106.5,49z
		 M119.1,44l-6.1,2.2L126.9,75L119.1,44z M132.2,40.2l-6.3,1.7l11.3,29.8L132.2,40.2z M145.5,37.6l-6.4,1.1l8.7,30.7L145.5,37.6z
		 M159,36.1l-6.5,0.6l6,31.3L159,36.1z M172.6,35.8h-6.5l3.2,31.7L172.6,35.8z"/>
	<path d="M107.5,11.5L20.3,83c-7.8,6.4-9,18-2.6,25.9L175.3,301c6.4,7.8,18,9,25.9,2.6l87.2-71.5c7.8-6.4,9-18,2.6-25.9L133.4,14.1
		C126.9,6.2,115.4,5.1,107.5,11.5z M277.8,208.5l-97.4,79.1l-148.1-181l97.4-79.1L277.8,208.5z"/>
	<polygon fill="#EC1B35" points="277.8,208.5 180.4,287.6 32.3,106.6 129.7,27.5 	"/>
	<path d="M154.7,173l-50.3-61.3l14.8-12.1l50.3,61.3l14.4,19.8L171.3,191L154.7,173z M190.1,216.2L178,201.4l14.8-12.1l12.2,14.8
		L190.1,216.2z"/>
	<path d="M188.5,307.7c0,0-12.4-7.1-18.1-14.5c-7.2-9.2-8.9-16.6-8.9-20c0-10.2-6.7-22.6-16.3-36.5c-14.9-21.6-28.8-31.3-41.3-31.7
		c-2.1-0.1-3.9-1.8-5.9-2.8c2.7-5.2,1.3-5.3,4-10.5c0.4,0.2,0.7,0.3,1,0.5c5.2,2.6,10.5,4.5,16.4,4.8c9.1,0.4,16.4-3,21.4-10.9
		c1.3-2,2.1-4.2,2.3-6.5c0.2-2.1-0.3-2.9-2.2-3.8c-3-1.4-6.1-2.8-9.1-4.3c-13.8-6.5-27.6-13-41.5-19.4c-4.9-2.3-7-1.6-9.9,3
		c-8.4,13.3-13,21.6-21.4,34.9c-2.1,3.3-4.2,6.6-6.1,10c-1.6,3-1.6,6,0.3,9c1.2,1.9,2.6,3.8,3.9,5.7c16.1,22.7,32.2,45.4,48.3,68.1
		h0c0.4,0.5,0.5,1.3,0.5,1.9c-1.2,9.1-5,46.3-5.1,46.8c21.9,12.4,52,18.3,88.2,14.2C188.7,332.6,188.5,307.7,188.5,307.7z"/>
	<g>
		<path d="M277.1,175.5c0.2-0.6,0.4-1.1,0.7-1.7c-0.3-1.2-0.5-2.3-0.8-3.5c-1.4-4.7-3.4-9-6-13.1c-1.6-2.5-3.4-4.8-5.3-7
			c-1.1-1.3-1.7-1.2-3.1-0.1c-6.5,4.9-12.7,8.8-20.3,14.9c-0.9,0.7-1.4,1.8-1.3,3c0.3,2.6,1.1,7.4,4.2,11.7
			c2.7,3.8,7.3,5.7,10.2,6.6c1.5,0.5,3.1,0.1,4.4-0.9C265.2,180.9,271.9,178.6,277.1,175.5z"/>
		<path d="M264.1,141.5c-0.4-1.6-0.6-3.2-1.3-4.6c-3.5-8-8.7-14.9-14.7-21.1c-1.2-1.2-2.5-2.2-3.9-3.1c-0.9-0.7-1.8-0.6-2.8,0.3
			c-7.7,7.2-15.1,13.4-24,21.9c-1.1,1.1-1.7,2.6-1.5,4.1c0.4,3.5,1.7,9.8,6.7,14.8c5.6,5.6,9.9,7.5,12.3,8.2
			c1.2,0.3,2.4,0.1,3.4-0.7c8.8-7,16.6-12.2,24.4-18.2C263.1,142.7,263.5,142.1,264.1,141.5z"/>
		<path d="M239.2,104.3c-0.8-1.8-1.8-3.5-2.9-5c-4.5-6.1-9.8-11.4-15.8-15.9c-1.9-1.4-4.1-2.5-6.3-3.6c-1-0.5-2-0.3-2.9,0.7
			c-5.1,5.6-16.5,17.2-20.6,21.5c-0.9,1-1.4,2.3-1.4,3.6c0.2,3.5,0.2,10.1,4.3,15.1c5.5,6.7,11.5,8.8,15.4,10.5
			c1.8,0.8,3.9,0.4,5.3-0.9c9.5-9.1,16-14.4,24-21.9C239.7,106.9,240,106.1,239.2,104.3z"/>
		<path d="M203.9,76.9c-0.7-1.3-1.5-2.6-2.4-3.7c-4.7-5.5-10.4-9.9-16.7-13.5c-2-1.1-4.2-1.9-6.4-2.7c-1.3-0.5-2.4,0-3.3,1.1
			c-3.7,4.5-6,6.8-11.8,13.5c-1.4,1.6-1.9,3.7-1.5,5.7c0.7,3.6-0.1,6.2,6.1,14.1c3.4,4.3,7.8,6.8,11.1,8.3c2.6,1.2,5.7,0.5,7.6-1.6
			c7.6-8.4,11.4-12,16.9-18.1C204.4,79.1,204.5,78,203.9,76.9z"/>
	</g>
</g>
</svg>
