<?xml version="1.0" encoding="utf-8"?>
<!-- Generator: Adobe Illustrator 24.1.3, SVG Export Plug-In . SVG Version: 6.00 Build 0)  -->
<svg version="1.1" id="Layer_1" xmlns="http://www.w3.org/2000/svg" xmlns:xlink="http://www.w3.org/1999/xlink" x="0px" y="0px"
	 viewBox="0 0 470 596" enable-background="new 0 0 470 596" xml:space="preserve">
<g>
	<g>
		<g>
			<path fill="#FFFFFF" d="M2.3,509.2v-92.2h20.8c5.5,0,10.4,1.4,14.9,4.3c3.8,2.5,6.5,6.3,8.1,11.4c0.9,2.7,1.3,6,1.3,9.8
				c0,6.2-1.6,11.1-4.9,14.9c-1.4,1.6-3,2.8-4.9,3.6c3.1,1.2,5.7,3.5,7.9,7c1.4,2.4,2.5,5.4,3.2,9.1c0.3,1.9,0.5,4,0.5,6.4
				c0,5.8-1.1,10.8-3.3,14.9c-1.7,3.2-4.1,5.7-7.3,7.6c-3.5,2.2-7,3.2-10.5,3.2H2.3z M17.3,454.6h5.8c4.3,0,7.2-2.1,8.7-6.3
				c0.5-1.6,0.8-3.5,0.8-5.8c0-3.8-0.9-6.7-2.8-8.7c-1.7-1.8-3.9-2.7-6.7-2.7h-5.8V454.6z M17.3,495.4h5.8c4.7,0,8-2.4,9.8-7.3
				c0.6-1.7,1-3.6,1-5.7c0-5.1-1-8.9-2.9-11.3c-1.8-2.2-4.4-3.2-7.8-3.2h-5.8V495.4z"/>
			<path fill="#FFFFFF" d="M76.6,415.8c6.1,0,11.3,2.2,15.6,6.5c4.3,4.3,6.4,9.5,6.4,15.6v50.3c0,6.1-2.2,11.3-6.5,15.6
				c-4.3,4.3-9.5,6.4-15.6,6.4c-6.1,0-11.3-2.2-15.6-6.5c-4.3-4.3-6.4-9.5-6.4-15.6v-50.3c0-6.1,2.2-11.3,6.5-15.6
				C65.4,418,70.6,415.8,76.6,415.8z M84.2,437.6c0-2.2-0.8-4.1-2.3-5.6c-1.5-1.5-3.4-2.3-5.6-2.3c-2.2,0-4.1,0.8-5.7,2.3
				c-1.6,1.5-2.4,3.4-2.4,5.6v50.5c0,2.2,0.8,4.1,2.4,5.6c1.6,1.5,3.5,2.3,5.7,2.3c2.2,0,4.1-0.8,5.6-2.3c1.5-1.5,2.3-3.4,2.3-5.6
				V437.6z"/>
			<path fill="#FFFFFF" d="M126.2,415.8c6.1,0,11.3,2.2,15.6,6.5c4.3,4.3,6.4,9.5,6.4,15.6v50.3c0,6.1-2.2,11.3-6.5,15.6
				c-4.3,4.3-9.5,6.4-15.6,6.4c-6.1,0-11.3-2.2-15.6-6.5c-4.3-4.3-6.4-9.5-6.4-15.6v-50.3c0-6.1,2.2-11.3,6.5-15.6
				C115,418,120.2,415.8,126.2,415.8z M133.8,437.6c0-2.2-0.8-4.1-2.3-5.6c-1.5-1.5-3.4-2.3-5.6-2.3c-2.2,0-4.1,0.8-5.7,2.3
				c-1.6,1.5-2.4,3.4-2.4,5.6v50.5c0,2.2,0.8,4.1,2.4,5.6c1.6,1.5,3.5,2.3,5.7,2.3c2.2,0,4.1-0.8,5.6-2.3c1.5-1.5,2.3-3.4,2.3-5.6
				V437.6z"/>
			<path fill="#FFFFFF" d="M175.8,417c6.8,0,12.2,2.1,16.2,6.4c3.7,4.1,5.6,9.3,5.6,15.6v13.4c0,6.1-2.1,11.3-6.4,15.6
				c-4.2,4.3-9.4,6.5-15.4,6.5h-8v34.7h-13.9V417H175.8z M184.1,439.2c0-2.4-0.7-4.3-2.2-5.8c-1.4-1.5-3.4-2.2-5.8-2.2h-8.4v29.5
				h8.4c2.2,0,4.1-0.8,5.6-2.4c1.5-1.6,2.3-3.5,2.3-5.7V439.2z"/>
			<path fill="#FFFFFF" d="M240.2,431h-14.8v-14h43.4v14h-14.7v78.2h-13.9V431z"/>
			<path fill="#FFFFFF" d="M296.3,417c7.7,0,13.4,2.1,17.1,6.4c3.2,3.7,4.8,8.9,4.8,15.6v13.4c0,6.5-2.5,12-7.4,16.5l10.3,40.2h-15
				l-8.4-34.7c-0.4,0-0.8,0-1.3,0h-8v34.7h-13.9V417H296.3z M304.6,439.2c0-5.3-2.6-8-7.9-8h-8.4v29.5h8.4c2.2,0,4.1-0.8,5.6-2.4
				c1.5-1.6,2.3-3.5,2.3-5.7V439.2z"/>
			<path fill="#FFFFFF" d="M346.9,415.8c6.1,0,11.3,2.2,15.6,6.5c4.3,4.3,6.4,9.5,6.4,15.6v50.3c0,6.1-2.2,11.3-6.5,15.6
				c-4.3,4.3-9.5,6.4-15.6,6.4c-6.1,0-11.3-2.2-15.6-6.5c-4.3-4.3-6.4-9.5-6.4-15.6v-50.3c0-6.1,2.2-11.3,6.5-15.6
				C335.7,418,340.8,415.8,346.9,415.8z M354.4,437.6c0-2.2-0.8-4.1-2.3-5.6c-1.5-1.5-3.4-2.3-5.6-2.3c-2.2,0-4.1,0.8-5.7,2.3
				c-1.6,1.5-2.4,3.4-2.4,5.6v50.5c0,2.2,0.8,4.1,2.4,5.6c1.6,1.5,3.5,2.3,5.7,2.3c2.2,0,4.1-0.8,5.6-2.3c1.5-1.5,2.3-3.4,2.3-5.6
				V437.6z"/>
			<path fill="#FFFFFF" d="M396.4,415.8c6.1,0,11.3,2.2,15.6,6.5c4.3,4.3,6.4,9.5,6.4,15.6v50.3c0,6.1-2.2,11.3-6.5,15.6
				c-4.3,4.3-9.5,6.4-15.6,6.4c-6.1,0-11.3-2.2-15.6-6.5c-4.3-4.3-6.4-9.5-6.4-15.6v-50.3c0-6.1,2.2-11.3,6.5-15.6
				C385.2,418,390.4,415.8,396.4,415.8z M404,437.6c0-2.2-0.8-4.1-2.3-5.6c-1.5-1.5-3.4-2.3-5.6-2.3c-2.2,0-4.1,0.8-5.7,2.3
				c-1.6,1.5-2.4,3.4-2.4,5.6v50.5c0,2.2,0.8,4.1,2.4,5.6c1.6,1.5,3.5,2.3,5.7,2.3c2.2,0,4.1-0.8,5.6-2.3c1.5-1.5,2.3-3.4,2.3-5.6
				V437.6z"/>
			<path fill="#FFFFFF" d="M446,417c6.8,0,12.2,2.1,16.2,6.4c3.7,4.1,5.6,9.3,5.6,15.6v13.4c0,6.1-2.1,11.3-6.4,15.6
				c-4.2,4.3-9.4,6.5-15.4,6.5h-8v34.7h-13.9V417H446z M454.3,439.2c0-2.4-0.7-4.3-2.2-5.8c-1.4-1.5-3.4-2.2-5.8-2.2H438v29.5h8.4
				c2.2,0,4.1-0.8,5.6-2.4c1.5-1.6,2.3-3.5,2.3-5.7V439.2z"/>
		</g>
		<g>
			<path fill="#FFFFFF" d="M2.1,591.3v-57.8h24.8v8.8H10.8v15.8h11.8v8.8H10.8v15.8h16.1v8.8H2.1z"/>
			<path fill="#FFFFFF" d="M101.9,592c-3.8,0-7.1-1.3-9.8-4c-2.7-2.7-4-5.9-4-9.7v-44.7h8.5v44.6c0,1.4,0.5,2.6,1.5,3.5
				c1,1,2.2,1.5,3.5,1.5c1.4,0,2.6-0.5,3.5-1.5c1-1,1.5-2.1,1.5-3.5v-44.6h9.1v44.7c0,3.9-1.4,7.1-4.1,9.8
				C109,590.7,105.7,592,101.9,592z"/>
			<path fill="#FFFFFF" d="M190.7,592.1c-3.8,0-7.1-1.4-9.8-4.1c-2.7-2.7-4-5.9-4-9.7v-31.5c0-3.8,1.4-7.1,4.1-9.8
				c2.7-2.7,6-4,9.8-4c3.8,0,7.1,1.4,9.8,4.1c2.7,2.7,4,6,4,9.8v6.6h-9v-6.8c0-1.4-0.5-2.6-1.5-3.5c-1-1-2.2-1.5-3.5-1.5
				c-1.4,0-2.6,0.5-3.5,1.5c-1,1-1.5,2.2-1.5,3.5v31.6c0,1.4,0.5,2.6,1.5,3.5c1,1,2.1,1.5,3.5,1.5c1.4,0,2.6-0.5,3.5-1.4
				c1-1,1.5-2.1,1.5-3.5v-11.4h-4.8v-8.8h13.9v20.2c0,3.8-1.4,7.1-4.1,9.8C197.7,590.7,194.5,592.1,190.7,592.1z"/>
			<path fill="#FFFFFF" d="M265.7,591.3v-57.8h24.8v8.8h-16.1v15.8h11.8v8.8h-11.8v15.8h16.1v8.8H265.7z"/>
			<path fill="#FFFFFF" d="M361.5,533.6l11.6,38.8v-38.8h8.7v57.8h-9.4l-12-37v37h-8.7v-57.8H361.5z"/>
			<path fill="#FFFFFF" d="M443.1,591.3v-57.8h24.8v8.8h-16.1v15.8h11.8v8.8h-11.8v15.8h16.1v8.8H443.1z"/>
		</g>
		<rect x="2.1" y="518.3" fill="#EC1B35" width="465.8" height="8"/>
	</g>
	<g>
		<path fill="#FFFFFF" d="M227.1,363.9c-45.2,0-87.8-17.6-119.8-49.6s-49.6-74.5-49.6-119.8c0-25.2,5.6-50.3,16.4-72.8l-4.3-5.2
			c-4.4-5.3-6.4-12-5.7-18.8c0.7-6.8,4-13,9.3-17.4l87.2-71.5c5.3-4.4,12-6.4,18.8-5.7c6.8,0.7,13,4,17.4,9.3l11.3,13.8
			c6.3-0.7,12.7-1.1,19-1.1c45.2,0,87.8,17.6,119.8,49.6s49.6,74.5,49.6,119.8c0,45.2-17.6,87.8-49.6,119.8S272.3,363.9,227.1,363.9
			z"/>
		<circle fill="#FFFFFF" cx="227.1" cy="194.5" r="155.8"/>
		<path d="M227,356.6c-23.3,0-46.6-5.1-68.4-15.3c-39.2-18.3-69-50.8-83.8-91.4C60,209.3,61.9,165.3,80.2,126
			c18.3-39.2,50.8-69,91.4-83.8c83.9-30.6,177.1,12.9,207.7,96.8c30.6,83.9-12.9,177.1-96.8,207.7
			C264.4,353.3,245.7,356.6,227,356.6z M226.9,44.9c-17,0-34.2,2.9-51,9c-37.5,13.7-67.5,41.1-84.4,77.3
			c-16.9,36.2-18.7,76.8-5,114.4c13.7,37.5,41.1,67.5,77.3,84.4c36.2,16.9,76.8,18.7,114.4,5c77.5-28.2,117.6-114.2,89.4-191.7
			C345.5,82.7,288,44.9,226.9,44.9z"/>
		<path d="M237.9,70.9L237.4,39l6.5,0.6L237.9,70.9z M257.3,41.6l-6.4-1.1l-2.3,31.8L257.3,41.6z M270.5,44.9l-6.3-1.7l-5.1,31.5
			L270.5,44.9z M283.4,49.2l-6.1-2.2l-7.8,30.9L283.4,49.2z M295.9,54.7l-5.9-2.7l-10.5,30.1L295.9,54.7z M307.8,61.2l-5.6-3.2
			l-13,29.1L307.8,61.2z M319.1,68.7l-5.3-3.7l-15.5,27.8L319.1,68.7z M329.7,77.2l-5-4.2l-17.9,26.4L329.7,77.2z M339.5,86.6
			l-4.6-4.6l-20.1,24.7L339.5,86.6z M348.5,96.8l-4.2-5l-22.2,22.9L348.5,96.8z M356.6,107.8l-3.7-5.3l-24.1,20.9L356.6,107.8z
			 M363.6,119.4l-3.2-5.6l-25.8,18.7L363.6,119.4z M369.6,131.6l-2.7-5.9l-27.4,16.3L369.6,131.6z M374.6,144.3l-2.2-6.1l-28.7,13.9
			L374.6,144.3z M378.4,157.3l-1.7-6.3l-29.8,11.3L378.4,157.3z M381.1,170.6l-1.1-6.4l-30.7,8.7L381.1,170.6z M382.6,184.2
			l-0.6-6.5l-31.3,6L382.6,184.2z M382.9,197.8v-6.5l-31.7,3.2L382.9,197.8z M382,211.3l0.6-6.5l-31.9,0.5L382,211.3z M379.9,224.8
			l1.1-6.4l-31.8-2.3L379.9,224.8z M376.7,238l1.7-6.3l-31.5-5.1L376.7,238z M372.4,250.8l2.2-6.1l-30.9-7.8L372.4,250.8z
			 M366.9,263.3l2.7-5.9l-30.1-10.5L366.9,263.3z M360.4,275.2l3.2-5.6l-29.1-13L360.4,275.2z M352.8,286.5l3.7-5.3l-27.8-15.5
			L352.8,286.5z M344.3,297.1l4.2-5l-26.4-17.9L344.3,297.1z M334.9,307l4.6-4.6l-24.7-20.1L334.9,307z M324.7,315.9l5-4.2
			l-22.9-22.2L324.7,315.9z M313.8,324l5.3-3.7l-20.9-24.1L313.8,324z M302.2,331.1l5.6-3.2L289.1,302L302.2,331.1z M290,337.1
			l5.9-2.7L279.5,307L290,337.1z M277.3,342l6.1-2.2l-13.9-28.7L277.3,342z M264.3,345.8l6.3-1.7l-11.3-29.8L264.3,345.8z
			 M250.9,348.5l6.4-1.1l-8.7-30.7L250.9,348.5z M237.4,350l6.5-0.6l-6-31.3L237.4,350z M223.8,350.3h6.5l-3.2-31.7L223.8,350.3z
			 M210.3,349.4l6.5,0.6l-0.5-31.9L210.3,349.4z M196.8,347.4l6.4,1.1l2.3-31.8L196.8,347.4z M183.6,344.2l6.3,1.7l5.1-31.5
			L183.6,344.2z M170.7,339.8l6.1,2.2l7.8-30.9L170.7,339.8z M158.3,334.3l5.9,2.7l10.5-30.1L158.3,334.3z M146.4,327.8l5.6,3.2
			l13-29.1L146.4,327.8z M135.1,320.3l5.3,3.7l15.5-27.8L135.1,320.3z M124.4,311.8l5,4.2l17.9-26.4L124.4,311.8z M114.6,302.4
			l4.6,4.6l20.1-24.7L114.6,302.4z M105.6,292.2l4.2,5l22.2-22.9L105.6,292.2z M97.6,281.2l3.7,5.3l24.1-20.9L97.6,281.2z
			 M90.5,269.6l3.2,5.6l25.8-18.7L90.5,269.6z M84.5,257.4l2.7,5.9l27.4-16.3L84.5,257.4z M79.6,244.7l2.2,6.1l28.7-13.9L79.6,244.7
			z M75.8,231.7l1.7,6.3l29.8-11.3L75.8,231.7z M73.1,218.4l1.1,6.4l30.7-8.7L73.1,218.4z M71.6,204.9l0.6,6.5l31.3-6L71.6,204.9z
			 M71.3,191.3v6.5l31.7-3.2L71.3,191.3z M72.2,177.7l-0.6,6.5l31.9-0.5L72.2,177.7z M74.2,164.3l-1.1,6.4l31.8,2.3L74.2,164.3z
			 M77.4,151l-1.7,6.3l31.5,5.1L77.4,151z M81.8,138.2l-2.2,6.1l30.9,7.8L81.8,138.2z M87.3,125.7l-2.7,5.9l30.1,10.5L87.3,125.7z
			 M93.8,113.8l-3.2,5.6l29.1,13L93.8,113.8z M101.3,102.5l-3.7,5.3l27.8,15.5L101.3,102.5z M109.8,91.9l-4.2,5l26.4,17.9
			L109.8,91.9z M119.2,82l-4.6,4.6l24.7,20.1L119.2,82z M129.4,73.1l-5,4.2l22.9,22.2L129.4,73.1z M140.4,65l-5.3,3.7l20.9,24.1
			L140.4,65z M152,58l-5.6,3.2L165,87.1L152,58z M164.2,51.9l-5.9,2.7l16.3,27.4L164.2,51.9z M176.8,47l-6.1,2.2l13.9,28.7L176.8,47
			z M189.9,43.2l-6.3,1.7L195,74.7L189.9,43.2z M203.2,40.5l-6.4,1.1l8.7,30.7L203.2,40.5z M216.7,39l-6.5,0.6l6,31.3L216.7,39z
			 M230.3,38.7h-6.5l3.2,31.7L230.3,38.7z"/>
		<path d="M165.2,14.5L78,86c-7.8,6.4-9,18-2.6,25.9L233,303.9c6.4,7.8,18,9,25.9,2.6L346,235c7.8-6.4,9-18,2.6-25.9L191.1,17
			C184.6,9.2,173.1,8,165.2,14.5z M335.5,211.4l-97.4,79.1L90,109.5l97.4-79.1L335.5,211.4z"/>
		<polygon fill="#EC1B35" points="335.5,211.4 238.1,290.5 90,109.5 187.4,30.4 		"/>
		<path d="M212.4,176l-50.3-61.3l14.8-12.1l50.3,61.3l14.4,19.8L229,194L212.4,176z M247.8,219.2l-12.2-14.8l14.8-12.1l12.2,14.8
			L247.8,219.2z"/>
		<path d="M246.2,310.6c0,0-12.4-7.1-18.1-14.5c-7.2-9.2-8.9-16.6-8.9-20c0-10.2-6.7-22.6-16.3-36.5c-14.9-21.6-28.8-31.3-41.3-31.7
			c-2.1-0.1-3.9-1.8-5.9-2.8c2.7-5.2,1.3-5.3,4-10.5c0.4,0.2,0.7,0.3,1,0.5c5.2,2.6,10.5,4.5,16.4,4.8c9.1,0.4,16.4-3,21.4-10.9
			c1.3-2,2.1-4.2,2.3-6.5c0.2-2.1-0.3-2.9-2.2-3.8c-3-1.4-6.1-2.8-9.1-4.3c-13.8-6.5-27.6-13-41.5-19.4c-4.9-2.3-7-1.6-9.9,3
			c-8.4,13.3-13,21.6-21.4,34.9c-2.1,3.3-4.2,6.6-6.1,10c-1.6,3-1.6,6,0.3,9c1.2,1.9,2.6,3.8,3.9,5.7c16.1,22.7,32.2,45.4,48.3,68.1
			h0c0.4,0.5,0.5,1.3,0.5,1.9c-1.2,9.1-5,46.3-5.1,46.8c21.9,12.4,52,18.3,88.2,14.2C246.4,335.6,246.2,310.6,246.2,310.6z"/>
		<g>
			<path d="M334.8,178.5c0.2-0.6,0.4-1.1,0.7-1.7c-0.3-1.2-0.5-2.3-0.8-3.5c-1.4-4.7-3.4-9-6-13.1c-1.6-2.5-3.4-4.8-5.3-7
				c-1.1-1.3-1.7-1.2-3.1-0.1c-6.5,4.9-12.7,8.8-20.3,14.9c-0.9,0.7-1.4,1.8-1.3,3c0.3,2.6,1.1,7.4,4.2,11.7
				c2.7,3.8,7.3,5.7,10.2,6.6c1.5,0.5,3.1,0.1,4.4-0.9C322.9,183.9,329.6,181.6,334.8,178.5z"/>
			<path d="M321.8,144.4c-0.4-1.6-0.6-3.2-1.3-4.6c-3.5-8-8.7-14.9-14.7-21.1c-1.2-1.2-2.5-2.2-3.9-3.1c-0.9-0.7-1.8-0.6-2.8,0.3
				c-7.7,7.2-15.1,13.4-24,21.9c-1.1,1.1-1.7,2.6-1.5,4.1c0.4,3.5,1.7,9.8,6.7,14.8c5.6,5.6,9.9,7.5,12.3,8.2
				c1.2,0.3,2.4,0.1,3.4-0.7c8.8-7,16.6-12.2,24.4-18.2C320.8,145.7,321.2,145.1,321.8,144.4z"/>
			<path d="M296.9,107.3c-0.8-1.8-1.8-3.5-2.9-5c-4.5-6.1-9.8-11.4-15.8-15.9c-1.9-1.4-4.1-2.5-6.3-3.6c-1-0.5-2-0.3-2.9,0.7
				c-5.1,5.6-16.5,17.2-20.6,21.5c-0.9,1-1.4,2.3-1.4,3.6c0.2,3.5,0.2,10.1,4.3,15.1c5.5,6.7,11.5,8.8,15.4,10.5
				c1.8,0.8,3.9,0.4,5.3-0.9c9.5-9.1,16-14.4,24-21.9C297.4,109.8,297.7,109.1,296.9,107.3z"/>
			<path d="M261.6,79.9c-0.7-1.3-1.5-2.6-2.4-3.7c-4.7-5.5-10.4-9.9-16.7-13.5c-2-1.1-4.2-1.9-6.4-2.7c-1.3-0.5-2.4,0-3.3,1.1
				c-3.7,4.5-6,6.8-11.8,13.5c-1.4,1.6-1.9,3.7-1.5,5.7c0.7,3.6-0.1,6.2,6.1,14.1c3.4,4.3,7.8,6.8,11.1,8.3c2.6,1.2,5.7,0.5,7.6-1.6
				c7.6-8.4,11.4-12,16.9-18.1C262.1,82,262.2,81,261.6,79.9z"/>
		</g>
	</g>
</g>
</svg>
